<svg width="24" height="24" viewBox="0 0 24 24" fill="none" xmlns="http://www.w3.org/2000/svg">
<path fill-rule="evenodd" clip-rule="evenodd" d="M12 2C6.477 2 2 6.477 2 12C2 17.5229 6.47685 21.9998 11.9997 22C13.9745 22.0032 15.9057 21.4188 17.5475 20.3213L17.6856 20.229L16.639 18.5396L16.491 18.6382C15.2258 19.4816 13.6018 20.018 12 20.018C7.59047 20.018 3.98198 16.4095 3.98198 12.0008C3.98198 7.59047 7.5905 3.98198 12 3.98198C16.4095 3.98198 20.018 7.59048 20.018 12V13.638C20.018 13.9887 19.8387 14.3567 19.5547 14.6407C19.2707 14.9247 18.9027 15.104 18.552 15.104C18.2013 15.104 17.8333 14.9247 17.5493 14.6407C17.2653 14.3567 17.086 13.9887 17.086 13.638L17.086 7.8968H15.0052C12.9533 6.39328 10.1012 6.63664 8.33383 8.47445C6.38682 10.4991 6.44975 13.7187 8.4744 15.6658C10.4498 17.5654 13.5627 17.5517 15.5213 15.6695C16.2231 16.5651 17.4315 17.086 18.552 17.086C20.5576 17.086 22 15.4577 22 13.4742V12C22 6.477 17.523 2 12 2ZM8.89599 12C8.89599 10.2857 10.2857 8.89598 12 8.89598C13.7143 8.89598 15.104 10.2857 15.104 12C15.104 13.7143 13.7143 15.104 12 15.104C10.2857 15.104 8.89599 13.7143 8.89599 12Z" fill="#080707"/>
</svg>
