<svg width="24" height="24" viewBox="0 0 24 24" fill="none" xmlns="http://www.w3.org/2000/svg">
<g clip-path="url(#clip0_17743_147114)">
<path d="M10.9998 11V7.99999C10.9998 7.44771 11.4475 6.99999 11.9998 6.99999C12.552 6.99999 12.9998 7.44771 12.9998 7.99999L12.9998 11L15.9998 11C16.552 11 16.9998 11.4477 16.9998 12C16.9998 12.5523 16.552 13 15.9998 13H12.9998L12.9998 16C12.9998 16.5523 12.552 17 11.9998 17C11.4475 17 10.9998 16.5523 10.9998 16V13H7.99975C7.44747 13 6.99975 12.5523 6.99975 12C6.99975 11.4477 7.44747 11 7.99975 11L10.9998 11Z" fill="#080707"/>
<path fill-rule="evenodd" clip-rule="evenodd" d="M6.0003 22.3918C0.264035 19.08 -1.70362 11.7366 1.60821 6.0003C4.92005 0.264033 12.2634 -1.70362 17.9997 1.60821C23.736 4.92005 25.7036 12.2634 22.3918 17.9997C19.08 23.736 11.7366 25.7036 6.0003 22.3918ZM1.99972 11.9999C1.99972 6.47993 6.47972 1.99993 11.9997 1.99992C17.5197 1.99992 21.9997 6.47993 21.9997 11.9999C21.9997 17.5199 17.5197 21.9999 11.9997 21.9999C6.47972 21.9999 1.99972 17.5199 1.99972 11.9999ZM10.9998 7.99999V11L7.99975 11C7.44747 11 6.99975 11.4477 6.99975 12C6.99975 12.5523 7.44747 13 7.99975 13H10.9998V16C10.9998 16.5523 11.4475 17 11.9998 17C12.552 17 12.9998 16.5523 12.9998 16L12.9998 13H15.9998C16.552 13 16.9998 12.5523 16.9998 12C16.9998 11.4477 16.552 11 15.9998 11L12.9998 11L12.9998 7.99999C12.9998 7.44771 12.552 6.99999 11.9998 6.99999C11.4475 6.99999 10.9998 7.44771 10.9998 7.99999Z" fill="#080707"/>
</g>
<defs>
<clipPath id="clip0_17743_147114">
<rect width="24" height="24" fill="white"/>
</clipPath>
</defs>
</svg>
