<svg width="24" height="24" viewBox="0 0 24 24" fill="none" xmlns="http://www.w3.org/2000/svg">
<mask id="path-1-inside-1_16006_414257" fill="white">
<path d="M22 4V20H2V4H22ZM4 8.67H6.5V6H4V8.67ZM6.5 10.67H4V13.34H6.5V10.67ZM20 6H8.5V18H20V6ZM6.5 18V15.33H4V18H6.5Z"/>
</mask>
<path d="M22 4H24V2H22V4ZM22 20V22H24V20H22ZM2 20H0V22H2V20ZM2 4V2H0V4H2ZM4 8.67H2V10.67H4V8.67ZM6.5 8.67V10.67H8.5V8.67H6.5ZM6.5 6H8.5V4H6.5V6ZM4 6V4H2V6H4ZM6.5 10.67H8.5V8.67H6.5V10.67ZM4 10.67V8.67H2V10.67H4ZM4 13.34H2V15.34H4V13.34ZM6.5 13.34V15.34H8.5V13.34H6.5ZM20 6H22V4H20V6ZM8.5 6V4H6.5V6H8.5ZM8.5 18H6.5V20H8.5V18ZM20 18V20H22V18H20ZM6.5 18V20H8.5V18H6.5ZM6.5 15.33H8.5V13.33H6.5V15.33ZM4 15.33V13.33H2V15.33H4ZM4 18H2V20H4V18ZM20 4V20H24V4H20ZM22 18H2V22H22V18ZM4 20V4H0V20H4ZM2 6H22V2H2V6ZM4 10.67H6.5V6.67H4V10.67ZM8.5 8.67V6H4.5V8.67H8.5ZM6.5 4H4V8H6.5V4ZM2 6V8.67H6V6H2ZM6.5 8.67H4V12.67H6.5V8.67ZM2 10.67V13.34H6V10.67H2ZM4 15.34H6.5V11.34H4V15.34ZM8.5 13.34V10.67H4.5V13.34H8.5ZM20 4H8.5V8H20V4ZM6.5 6V18H10.5V6H6.5ZM8.5 20H20V16H8.5V20ZM22 18V6H18V18H22ZM8.5 18V15.33H4.5V18H8.5ZM6.5 13.33H4V17.33H6.5V13.33ZM2 15.33V18H6V15.33H2ZM4 20H6.5V16H4V20Z" fill="#080707" mask="url(#path-1-inside-1_16006_414257)"/>
</svg>
