<svg width="24" height="24" viewBox="0 0 24 24" fill="none" xmlns="http://www.w3.org/2000/svg">
<g clip-path="url(#clip0_10878_54)">
<path fill-rule="evenodd" clip-rule="evenodd" d="M3 17.758C3 16.1025 3.11217 13.7156 3.50602 13.0523C3.89987 12.3889 7.33344 9.10359 8.44364 6.42813C9.55384 3.75267 9.74531 -3.53123e-08 11.5686 0C13.3919 3.53124e-08 13.9891 1.43066 13.7957 4.36954C13.6022 7.30843 12.2475 9.12227 13.2002 9.83807C13.8476 10.3244 14.9895 9.52898 17.7593 9.52898C18.966 9.52898 21 9.52898 21 11.2065C21 12.884 20.6437 12.6915 20.4811 13.8302C20.3186 14.969 20.8081 15.521 20.2673 16.8059C19.7266 18.0907 19.0607 18.2483 18.7512 19.1684C18.4416 20.0886 18.5501 21.0777 17.1022 22.4259C15.6543 23.774 13.3433 24 11.5686 24C9.79396 24 4.52154 23.3834 3.79538 21.6425C3.06921 19.9015 3 19.2669 3 17.758Z" fill="#080707"/>
</g>
<defs>
<clipPath id="clip0_10878_54">
<rect width="24" height="24" fill="white"/>
</clipPath>
</defs>
</svg>
