<svg width="24" height="24" viewBox="0 0 24 24" fill="none" xmlns="http://www.w3.org/2000/svg">
<path fill-rule="evenodd" clip-rule="evenodd" d="M17.41 16L16 17.41L17.84 19.25L16 21.09L17.41 22.5L19.25 20.67L21.09 22.51L22.5 21.1L20.66 19.26L22.5 17.42L21.09 16.01L19.25 17.85L17.41 16Z" fill="#080707"/>
<path d="M14 4V9C14 10.12 14.37 11.16 15 12H9C9.65 11.14 10 10.1 10 9V4H14ZM17 2H7C6.45 2 6 2.45 6 3C6 3.55 6.45 4 7 4H8V9C8 10.66 6.66 12 5 12V14H10.97V21L11.97 22L12.97 21V14H19V12C17.34 12 16 10.66 16 9V4H17C17.55 4 18 3.55 18 3C18 2.45 17.55 2 17 2Z" fill="#080707"/>
</svg>
