<svg width="24" height="24" viewBox="0 0 24 24" fill="none" xmlns="http://www.w3.org/2000/svg">
<path d="M4 18V17.35C4 17.01 4.16 16.69 4.41 16.54C6.1 15.53 8.03 15 10 15C10.03 15 10.05 15 10.08 15.01C10.18 14.31 10.38 13.64 10.67 13.03C10.45 13.01 10.23 13 10 13C7.58 13 5.32 13.67 3.39 14.82C2.51 15.34 2 16.32 2 17.35V20H11.26C10.84 19.4 10.51 18.72 10.29 18H4Z" fill="#080707"/>
<path d="M10 12C12.21 12 14 10.21 14 8C14 5.79 12.21 4 10 4C7.79 4 6 5.79 6 8C6 10.21 7.79 12 10 12ZM10 6C11.1 6 12 6.9 12 8C12 9.1 11.1 10 10 10C8.9 10 8 9.1 8 8C8 6.9 8.9 6 10 6Z" fill="#080707"/>
<path d="M20.92 16C20.92 15.78 20.89 15.58 20.86 15.37L22 14.36L21 12.63L19.55 13.12C19.23 12.85 18.87 12.64 18.47 12.49L18.17 11H16.17L15.87 12.49C15.47 12.64 15.11 12.85 14.79 13.12L13.34 12.63L12.34 14.36L13.48 15.37C13.45 15.58 13.42 15.78 13.42 16C13.42 16.22 13.45 16.42 13.48 16.63L12.34 17.64L13.34 19.37L14.79 18.88C15.11 19.15 15.47 19.36 15.87 19.51L16.17 21H18.17L18.47 19.51C18.87 19.36 19.23 19.15 19.55 18.88L21 19.37L22 17.64L20.86 16.63C20.89 16.42 20.92 16.22 20.92 16ZM17.17 18C16.07 18 15.17 17.1 15.17 16C15.17 14.9 16.07 14 17.17 14C18.27 14 19.17 14.9 19.17 16C19.17 17.1 18.27 18 17.17 18Z" fill="#080707"/>
</svg>
