<svg width="24" height="24" viewBox="0 0 24 24" fill="none" xmlns="http://www.w3.org/2000/svg">
<path d="M1 10V12H9V10H1Z" fill="#080707"/>
<path d="M19 8C19 5.79 17.21 4 15 4C12.79 4 11 5.79 11 8C11 10.21 12.79 12 15 12C17.21 12 19 10.21 19 8ZM17 8C17 9.1 16.1 10 15 10C13.9 10 13 9.1 13 8C13 6.9 13.9 6 15 6C16.1 6 17 6.9 17 8Z" fill="#080707"/>
<path d="M7 18V20H23V18C23 15.34 17.67 14 15 14C12.33 14 7 15.34 7 18ZM9 18C9.2 17.29 12.3 16 15 16C17.69 16 20.77 17.28 21 18H9Z" fill="#080707"/>
</svg>
