<svg version="1.2" xmlns="http://www.w3.org/2000/svg" viewBox="0 0 1000 300" width="1000" height="300">
	<title>New Project</title>
	<style>
		.s0 { fill: #ffffff } 
		.s1 { fill: #f6b90d } 
		.s2 { fill: #ee9f0d } 
		.s3 { fill: #e9011a } 
		.s4 { fill: #ca0171 } 
		.s5 { fill: #fa088d } 
		.s6 { fill: #07c3d4 } 
		.s7 { fill: #3851a3 } 
		.s8 { fill: #930886 } 
		.s9 { fill: #05eaff } 
	</style>
	<g id="Folder 2 copy 2">
		<path id="ZO  O" class="s0" aria-label="ZO  O"  d="m244.1 238.8h-78.3l78-195.2h-136.3v39.2h78.7l-78.4 195.2h136.3zm117.9-24.4c47.9 0 87.1-39.2 87.1-87.1 0-47.9-39.2-87.1-87.1-87.1-47.9 0-87.1 39.2-87.1 87.1 0 47.9 39.2 87.1 87.1 87.1zm0-135.3c26.8 0 48.2 21.4 48.2 48.2 0 26.8-21.4 48.2-48.2 48.2-26.8 0-48.2-21.4-48.2-48.2 0-26.8 21.4-48.2 48.2-48.2zm76.4 160h-154.7v38.9h154.7zm368.3-24.8c47.9 0 87.1-39.2 87.1-87.1 0-47.9-39.2-87-87.1-87-47.9 0-87 39.1-87 87 0 47.9 39.1 87.1 87 87.1zm0-135.3c26.8 0 48.3 21.4 48.3 48.2 0 26.8-21.5 48.3-48.3 48.3-26.8 0-48.2-21.5-48.2-48.3 0-26.8 21.4-48.2 48.2-48.2zm76.4 160.1h-154.7v38.8h154.7z"/>
		<g id="Folder 1 copy">
			<g id="Layer copy 11">
				<g>
					<path fill-rule="evenodd" class="s1" d="m467.9 75.4h77.8l-38.4 67.3z"/>
					<path fill-rule="evenodd" class="s2" d="m507.3 142.7h77.7l-39.3-67.3z"/>
					<path fill-rule="evenodd" class="s3" d="m507.3 142.7h77.7l-38.4 67.3z"/>
					<path fill-rule="evenodd" class="s4" d="m546.6 210h77.8l-39.4-67.3z"/>
					<path fill-rule="evenodd" class="s5" d="m546.6 210h77.8l-38.4 67.4z"/>
					<path fill-rule="evenodd" class="s6" d="m711.1 39.6h-77.7l38.4 67.3z"/>
					<path fill-rule="evenodd" class="s7" d="m663.7 142.7h-78.7l40.3-67.3z"/>
					<path fill-rule="evenodd" class="s8" d="m663.7 142.7h-78.7l39.4 67.3z"/>
					<path fill-rule="evenodd" class="s9" d="m626.7 54.9h-37l18.7-32.1z"/>
				</g>
			</g>
		</g>
	</g>
</svg>